<svg xmlns="http://www.w3.org/2000/svg" width="500" height="500" viewBox="0 0 500 500" version="1.1"><path d="M 336.500 61.412 C 332.636 63.129, 329.493 66.577, 327.548 71.232 C 325.436 76.285, 325.605 80.552, 328.121 85.750 C 330.908 91.508, 336.126 94.919, 343.092 95.537 C 348.436 96.011, 348.464 95.999, 345.408 94.570 C 341.600 92.788, 336.248 86.838, 335.394 83.435 C 335.046 82.045, 334.958 78.525, 335.199 75.612 C 335.722 69.307, 338.588 64.796, 343.830 62.027 L 347.500 60.088 343.500 60.083 C 341.300 60.081, 338.150 60.678, 336.500 61.412 M 132.684 62.449 C 127.701 64.226, 125.132 66.598, 122.881 71.500 C 117.673 82.841, 125.032 95.723, 137.292 96.729 L 142.500 97.156 139.502 95.509 C 132.582 91.706, 129.856 87.216, 129.786 79.507 C 129.722 72.389, 132.806 67.003, 138.880 63.621 L 143.500 61.049 140 61.068 C 138.075 61.079, 134.783 61.700, 132.684 62.449 M 207.635 96.073 C 204.478 98.556, 204.271 101.651, 206.916 106.835 C 209.016 110.951, 215.522 117.347, 221 120.680 C 225.328 123.313, 234.329 126.024, 238.432 125.930 L 241.500 125.859 237.945 124.550 C 227.685 120.770, 220.499 115.411, 215.825 108.054 C 212.655 103.066, 212.319 100.418, 214.465 97.354 C 215.270 96.204, 215.645 94.979, 215.298 94.631 C 214.011 93.344, 210.190 94.063, 207.635 96.073 M 265 97 C 263.900 98.100, 263 99.434, 263 99.965 C 263 101.972, 256.394 108.343, 252.527 110.065 L 248.500 111.859 251.572 111.929 C 256.257 112.037, 263.723 109.123, 266.899 105.947 C 268.465 104.382, 270.696 101.278, 271.857 99.050 L 273.968 95 270.484 95 C 268.333 95, 266.235 95.765, 265 97 M 347 149.634 C 293.925 176.881, 249.479 199.826, 248.230 200.623 C 246.055 202.012, 246.032 202.166, 247.666 204.332 L 249.370 206.592 261.935 199.979 C 268.846 196.342, 287.550 186.701, 303.500 178.556 C 319.450 170.410, 339.700 160.036, 348.500 155.503 C 357.300 150.970, 373.950 142.419, 385.500 136.502 C 397.050 130.585, 414.651 121.526, 424.613 116.372 C 434.575 111.217, 443.012 107, 443.363 107 C 443.713 107, 444 156.880, 444 217.845 C 444 322.169, 443.897 328.779, 442.250 330.201 C 441.288 331.032, 397.681 353.654, 345.346 380.473 L 250.192 429.234 249.797 432.617 C 249.579 434.478, 249.467 436, 249.547 436 C 249.626 436, 272.149 424.484, 299.596 410.410 C 327.043 396.335, 370.650 373.994, 396.500 360.762 C 422.350 347.530, 444.334 335.984, 445.352 335.104 C 450.176 330.939, 450 335.462, 450 215.705 C 450 108.089, 449.922 103.240, 448.171 101.655 C 447.165 100.745, 445.703 100.021, 444.921 100.047 C 444.140 100.073, 400.075 122.388, 347 149.634" stroke="none" fill="#15545b" fill-rule="evenodd"/><path d="M 349.500 59.960 C 340.753 62.017, 335.885 67.345, 335.199 75.612 C 334.623 82.561, 335.381 85.226, 339.159 89.529 C 342.960 93.857, 347.765 96, 353.672 96 C 358.786 96, 362.415 94.351, 366.128 90.339 C 370.033 86.120, 371 83.676, 371 78.026 C 371 69.765, 365.692 61.778, 359.338 60.478 C 353.940 59.374, 352.348 59.290, 349.500 59.960 M 138.880 63.621 C 132.806 67.003, 129.722 72.389, 129.786 79.507 C 129.812 82.406, 130.546 86.155, 131.416 87.837 C 133.090 91.075, 138.733 95.910, 141.094 96.132 C 141.867 96.204, 140.925 96.597, 139 97.005 C 136.707 97.491, 138.496 97.663, 144.191 97.503 C 151.413 97.300, 153.613 96.831, 157.202 94.727 C 169.477 87.534, 168.751 69.290, 155.929 62.752 C 150.948 60.212, 144.404 60.545, 138.880 63.621 M 215.500 94.833 C 215.736 95.070, 215.270 96.204, 214.465 97.354 C 213.659 98.504, 213 100.382, 213 101.527 C 213 104.436, 217.914 111.856, 222.505 115.878 C 226.361 119.255, 237.172 124.935, 240 125.069 C 241.020 125.118, 240.860 125.435, 239.500 126.060 C 238.229 126.645, 241.871 126.771, 249.500 126.405 C 259.739 125.915, 262.380 125.427, 267.500 123.075 C 270.800 121.559, 274.989 119.060, 276.809 117.521 C 280.975 113.998, 285.978 105.380, 285.991 101.705 C 286.002 98.165, 281.952 94, 278.498 94 C 275.865 94, 271 98.213, 271 100.493 C 271 102.985, 263.975 108.847, 259.015 110.495 C 247.708 114.251, 232.830 108.308, 227.439 97.882 C 226.660 96.375, 225.159 94.868, 224.105 94.533 C 222.032 93.875, 214.794 94.128, 215.500 94.833 M 43 100.979 C 41.684 101.810, 41.464 115.653, 41.203 213.713 C 41.005 288.299, 41.249 326.685, 41.937 329.060 C 42.503 331.018, 43.986 333.568, 45.233 334.726 C 46.480 335.885, 91.967 359.637, 146.315 387.509 C 218.874 424.720, 245.721 438.036, 247.358 437.625 C 249.102 437.187, 249.642 436.250, 249.840 433.313 C 249.978 431.250, 250.634 429.217, 251.296 428.796 C 252.221 428.208, 252.210 428.027, 251.250 428.015 C 250.258 428.003, 250 405.252, 250 317.635 C 250 209.678, 249.957 207.216, 248.047 204.787 C 246.765 203.157, 246.433 201.967, 247.080 201.320 C 247.728 200.672, 247.454 200.363, 246.283 200.417 C 245.302 200.463, 200.372 177.887, 146.438 150.250 C 92.504 122.612, 47.504 100.007, 46.438 100.015 C 45.372 100.024, 43.825 100.457, 43 100.979 M 209 111.313 C 209 111.485, 210.463 112.948, 212.250 114.563 L 215.500 117.500 212.563 114.250 C 209.825 111.221, 209 110.540, 209 111.313 M 443.079 326.921 C 443.036 327.703, 442.229 329.278, 441.287 330.421 C 439.672 332.381, 439.707 332.377, 441.905 330.354 C 443.187 329.174, 443.994 327.599, 443.697 326.854 C 443.260 325.757, 443.143 325.770, 443.079 326.921" stroke="none" fill="#fba43d" fill-rule="evenodd"/></svg>